<svg width="1200" height="600" xmlns="http://www.w3.org/2000/svg">
  <defs>
    <linearGradient id="bg" x1="0%" y1="0%" x2="100%" y2="100%">
      <stop offset="0%" style="stop-color:#1a1a1a;stop-opacity:1" />
      <stop offset="50%" style="stop-color:#2c3e50;stop-opacity:1" />
      <stop offset="100%" style="stop-color:#34495e;stop-opacity:1" />
    </linearGradient>
    <linearGradient id="sofa-gradient" x1="0%" y1="0%" x2="100%" y2="100%">
      <stop offset="0%" style="stop-color:#8e44ad;stop-opacity:0.8" />
      <stop offset="100%" style="stop-color:#9b59b6;stop-opacity:0.6" />
    </linearGradient>
  </defs>
  
  <!-- Background -->
  <rect width="100%" height="100%" fill="url(#bg)"/>
  
  <!-- Decorative furniture elements -->
  <!-- Modern sofa -->
  <g transform="translate(100,200)" opacity="0.3">
    <rect x="0" y="40" width="200" height="80" rx="8" fill="url(#sofa-gradient)"/>
    <rect x="10" y="20" width="180" height="30" rx="15" fill="url(#sofa-gradient)"/>
    <circle cx="40" cy="130" r="8" fill="#7f8c8d"/>
    <circle cx="160" cy="130" r="8" fill="#7f8c8d"/>
  </g>
  
  <!-- Dining table -->
  <g transform="translate(900,180)" opacity="0.4">
    <ellipse cx="60" cy="80" rx="80" ry="40" fill="#8e44ad" opacity="0.6"/>
    <rect x="50" y="80" width="20" height="60" fill="#7f8c8d"/>
    <rect x="35" y="125" width="50" height="8" fill="#7f8c8d"/>
  </g>
  
  <!-- Decorative plants -->
  <g transform="translate(400,300)" opacity="0.2">
    <rect x="0" y="40" width="30" height="40" fill="#27ae60"/>
    <circle cx="15" cy="30" r="25" fill="#2ecc71"/>
    <rect x="10" y="75" width="10" height="20" fill="#8e44ad"/>
  </g>
  
  <!-- Subtle pattern overlay -->
  <pattern id="pattern" x="0" y="0" width="50" height="50" patternUnits="userSpaceOnUse">
    <circle cx="25" cy="25" r="1" fill="white" opacity="0.05"/>
  </pattern>
  <rect width="100%" height="100%" fill="url(#pattern)"/>
  
  <!-- Central focus area (lighter for text readability) -->
  <ellipse cx="600" cy="300" rx="400" ry="150" fill="rgba(52, 73, 94, 0.7)"/>
</svg>
