<svg width="120" height="120" viewBox="0 0 120 120" xmlns="http://www.w3.org/2000/svg">
  <defs>
    <linearGradient id="bgAnita" x1="0%" y1="0%" x2="100%" y2="100%">
      <stop offset="0%" stop-color="#FCE4EC"/>
      <stop offset="50%" stop-color="#F8BBD9"/>
      <stop offset="100%" stop-color="#F48FB1"/>
    </linearGradient>
    <linearGradient id="sari" x1="0%" y1="0%" x2="100%" y2="100%">
      <stop offset="0%" stop-color="#D32F2F"/>
      <stop offset="100%" stop-color="#F44336"/>
    </linearGradient>
  </defs>
  <circle cx="60" cy="60" r="60" fill="url(#bgAnita)"/>
  <!-- Hair -->
  <path d="M35 30c0-18 12-28 25-28s25 10 25 28c0 10-5 18-12 23-4-3-8-4-13-4s-9 1-13 4c-7-5-12-13-12-23z" fill="#1A0E0A"/>
  <!-- Hair braid detail -->
  <path d="M82 35c2 8 0 16-3 23" stroke="#4A2C2A" stroke-width="2" fill="none"/>
  <!-- Tikka (forehead decoration) -->
  <circle cx="60" cy="35" r="3" fill="#DC143C"/>
  <circle cx="60" cy="35" r="1.5" fill="#FFD700"/>
  <!-- Face -->
  <circle cx="60" cy="50" r="22" fill="#D4A574"/>
  <!-- Eyes -->
  <circle cx="52" cy="45" r="2.5" fill="#333"/>
  <circle cx="68" cy="45" r="2.5" fill="#333"/>
  <circle cx="52.5" cy="44.5" r="0.8" fill="#fff"/>
  <circle cx="68.5" cy="44.5" r="0.8" fill="#fff"/>
  <!-- Eyeliner -->
  <path d="M49 44c6 0 6 0 6 0M65 44c6 0 6 0 6 0" stroke="#333" stroke-width="0.8"/>
  <!-- Eyebrows -->
  <path d="M48 41c4-1 8-1 8 0" stroke="#1A0E0A" stroke-width="1.2" fill="none" stroke-linecap="round"/>
  <path d="M64 41c4-1 8-1 8 0" stroke="#1A0E0A" stroke-width="1.2" fill="none" stroke-linecap="round"/>
  <!-- Nose ring -->
  <circle cx="58" cy="52" r="1.5" fill="none" stroke="#FFD700" stroke-width="0.8"/>
  <!-- Nose -->
  <ellipse cx="60" cy="52" rx="1.5" ry="2" fill="#C19660"/>
  <!-- Lipstick -->
  <path d="M56 58c2 3 6 3 8 0" stroke="#C44569" stroke-width="2" fill="none" stroke-linecap="round"/>
  <ellipse cx="59" cy="57.5" rx="2.5" ry="1" fill="#E91E63" opacity="0.7"/>
  <!-- Traditional earrings -->
  <circle cx="38" cy="50" r="4" fill="url(#sari)"/>
  <circle cx="82" cy="50" r="4" fill="url(#sari)"/>
  <circle cx="38" cy="50" r="2" fill="#FFD700"/>
  <circle cx="82" cy="50" r="2" fill="#FFD700"/>
  <!-- Sari shoulder -->
  <path d="M30 70c10-5 20-8 30-8s20 3 30 8c5 3 10 8 10 15" stroke="url(#sari)" stroke-width="4" fill="none"/>
  <!-- Traditional pattern on sari -->
  <circle cx="45" cy="75" r="1.5" fill="#FFD700" opacity="0.8"/>
  <circle cx="60" cy="73" r="1.5" fill="#FFD700" opacity="0.8"/>
  <circle cx="75" cy="75" r="1.5" fill="#FFD700" opacity="0.8"/>
</svg>
