<svg width="120" height="120" viewBox="0 0 120 120" xmlns="http://www.w3.org/2000/svg">
  <defs>
    <linearGradient id="bgPrakash" x1="0%" y1="0%" x2="100%" y2="100%">
      <stop offset="0%" stop-color="#E8F5E8"/>
      <stop offset="50%" stop-color="#C8E6C9"/>
      <stop offset="100%" stop-color="#A5D6A7"/>
    </linearGradient>
    <linearGradient id="kurta" x1="0%" y1="0%" x2="100%" y2="100%">
      <stop offset="0%" stop-color="#2E7D32"/>
      <stop offset="100%" stop-color="#4CAF50"/>
    </linearGradient>
  </defs>
  <circle cx="60" cy="60" r="60" fill="url(#bgPrakash)"/>
  <!-- Hair -->
  <path d="M40 30c0-15 8-25 20-25s20 10 20 25c0 8-3 15-8 20-3-2-6-3-12-3s-9 1-12 3c-5-5-8-12-8-20z" fill="#2C1810"/>
  <!-- Hair texture -->
  <path d="M45 22c3-2 6-3 9-2M52 20c3-2 6-3 9-2M59 22c3-2 6-3 9-2M66 20c3-2 6-3 9-2" stroke="#4A2C2A" stroke-width="0.8" fill="none"/>
  <!-- Face -->
  <circle cx="60" cy="52" r="21" fill="#E4B171"/>
  <!-- Eyes -->
  <circle cx="53" cy="47" r="2.5" fill="#333"/>
  <circle cx="67" cy="47" r="2.5" fill="#333"/>
  <circle cx="53.5" cy="46.5" r="0.8" fill="#fff"/>
  <circle cx="67.5" cy="46.5" r="0.8" fill="#fff"/>
  <!-- Eyebrows -->
  <path d="M49 43c3-1 7-1 8 0" stroke="#2C1810" stroke-width="1.5" fill="none" stroke-linecap="round"/>
  <path d="M63 43c3-1 7-1 8 0" stroke="#2C1810" stroke-width="1.5" fill="none" stroke-linecap="round"/>
  <!-- Smile lines -->
  <path d="M48 52c2 1 3 2 3 3M69 52c2 1 3 2 3 3" stroke="#D4A574" stroke-width="0.8" fill="none"/>
  <!-- Nose -->
  <ellipse cx="60" cy="53" rx="1.8" ry="2.2" fill="#D4A574"/>
  <!-- Goatee -->
  <ellipse cx="60" cy="65" rx="4" ry="6" fill="#2C1810"/>
  <ellipse cx="60" cy="63" rx="3" ry="4" fill="#4A2C2A"/>
  <!-- Mouth -->
  <path d="M56 59c2 2 6 2 8 0" stroke="#8B4513" stroke-width="1.5" fill="none" stroke-linecap="round"/>
  <!-- Traditional kurta collar -->
  <path d="M35 72c8-3 16-5 25-5s17 2 25 5" stroke="url(#kurta)" stroke-width="6" fill="none"/>
  <!-- Kurta button -->
  <circle cx="60" cy="75" r="2" fill="#FFD700"/>
  <circle cx="60" cy="75" r="1" fill="#4CAF50"/>
  <!-- Traditional pattern -->
  <path d="M52 78c2-1 4-1 6 0c2 1 4 1 6 0M52 82c2-1 4-1 6 0c2 1 4 1 6 0" stroke="#FFD700" stroke-width="1" fill="none"/>
</svg>
